<svg width="50" height="50" viewBox="0 0 50 50" fill="none" xmlns="http://www.w3.org/2000/svg">
<path fill-rule="evenodd" clip-rule="evenodd" d="M29.9999 25C29.9999 17.6417 24.025 11.6667 16.6668 11.6667C9.30865 11.6667 3.33377 17.6417 3.33377 25V36.6667H1.66714C1.05215 36.6667 0.48716 37.005 0.197166 37.5467C-0.092828 38.0883 -0.0611621 38.7467 0.280498 39.2583L6.94703 49.2583C7.25536 49.7217 7.77701 50 8.33367 50C8.89032 50 9.41198 49.7217 9.72031 49.2583L16.3868 39.2583C16.7285 38.7467 16.7602 38.0883 16.4702 37.5467C16.1802 37.005 15.6152 36.6667 15.0002 36.6667H13.3336V25C13.3336 23.16 14.8269 21.6667 16.6668 21.6667C18.5068 21.6667 20.0001 23.16 20.0001 25C20.0001 32.3583 25.975 38.3333 33.3332 38.3333C40.6913 38.3333 46.6662 32.3583 46.6662 25V13.3333H48.3329C48.9478 13.3333 49.5128 12.995 49.8028 12.4533C50.0928 11.9117 50.0612 11.2533 49.7195 10.7417L43.053 0.741667C42.7446 0.278333 42.223 0 41.6663 0C41.1097 0 40.588 0.278333 40.2797 0.741667L33.6132 10.7417C33.2715 11.2533 33.2398 11.9117 33.5298 12.4533C33.8198 12.995 34.3848 13.3333 34.9998 13.3333H36.6664V25C36.6664 26.84 35.1731 28.3333 33.3332 28.3333C31.4932 28.3333 29.9999 26.84 29.9999 25ZM26.6666 25C26.6666 28.68 29.6532 31.6667 33.3332 31.6667C37.0131 31.6667 39.9997 28.68 39.9997 25V11.6667C39.9997 10.7467 39.253 10 38.3331 10H38.1147L41.6663 4.67167L45.2179 10H44.9996C44.0796 10 43.333 10.7467 43.333 11.6667V25C43.333 30.5183 38.8514 35 33.3332 35C27.8149 35 23.3334 30.5183 23.3334 25C23.3334 21.32 20.3468 18.3333 16.6668 18.3333C12.9869 18.3333 10.0003 21.32 10.0003 25V38.3333C10.0003 39.2533 10.747 40 11.6669 40H11.8853L8.33367 45.3283L4.78207 40H5.0004C5.92038 40 6.66704 39.2533 6.66704 38.3333V25C6.66704 19.4817 11.1486 15 16.6668 15C22.1851 15 26.6666 19.48 26.6666 25Z" fill="#00C6D4"/>
</svg>
