<svg width="42" height="43" viewBox="0 0 42 43" fill="none" xmlns="http://www.w3.org/2000/svg">
<path d="M20.9211 0C16.0434 0.000217055 11.3249 1.86295 7.60994 5.2549C3.89498 8.64685 1.42593 13.3467 0.64459 18.5134C-0.136751 23.6802 0.820601 28.9767 3.34535 33.4553C5.87009 37.9339 9.79748 41.3023 14.4248 42.9578C15.4519 43.1507 15.837 42.4894 15.837 41.9107C15.837 41.3872 15.8113 39.6512 15.8113 37.8051C10.6502 38.8246 9.31498 36.455 8.90415 35.215C8.44827 34.009 7.72562 32.9404 6.79862 32.1013C6.07966 31.6879 5.05257 30.6684 6.77292 30.6409C7.42982 30.7174 8.05985 30.9627 8.60964 31.356C9.15943 31.7493 9.61276 32.2791 9.93123 32.9003C10.2122 33.4419 10.59 33.9187 11.0429 34.3034C11.4959 34.6881 12.0151 34.973 12.5709 35.142C13.1267 35.3109 13.7081 35.3605 14.2817 35.2879C14.8554 35.2153 15.4101 35.022 15.914 34.7189C16.0029 33.5983 16.4683 32.5505 17.2235 31.7707C12.653 31.2196 7.87706 29.3182 7.87706 20.8866C7.84819 18.6957 8.60154 16.5761 9.98259 14.9623C9.35459 13.0582 9.42807 10.9686 10.188 9.12068C10.188 9.12068 11.9083 8.54201 15.837 11.3802C19.1982 10.3881 22.7466 10.3881 26.1078 11.3802C30.0364 8.51448 31.7568 9.12068 31.7568 9.12068C32.5169 10.9686 32.5903 13.0582 31.9622 14.9623C33.3474 16.5733 34.1014 18.6948 34.0678 20.8866C34.0678 29.3458 29.2661 31.2196 24.6956 31.7707C25.1858 32.3039 25.5634 32.944 25.8026 33.6477C26.0419 34.3514 26.1372 35.1021 26.0822 35.8488C26.0822 38.7972 26.0565 41.1668 26.0565 41.9108C26.0565 42.4895 26.4416 43.1783 27.4687 42.9579C32.0879 41.2889 36.004 37.9126 38.5179 33.4317C41.0319 28.9508 41.9802 23.657 41.1934 18.4953C40.4067 13.3335 37.9361 8.63978 34.2228 5.25196C30.5094 1.86413 25.795 0.0027222 20.9211 0Z" fill="white"/>
</svg>
