<svg width="42" height="43" viewBox="0 0 42 43" fill="none" xmlns="http://www.w3.org/2000/svg">
<path d="M31.5112 7.439C31.0237 7.439 30.5471 7.59032 30.1417 7.87381C29.7364 8.1573 29.4204 8.56024 29.2338 9.03168C29.0473 9.50311 28.9985 10.0219 29.0936 10.5223C29.1887 11.0228 29.4235 11.4825 29.7682 11.8433C30.1129 12.2042 30.5522 12.4499 31.0303 12.5494C31.5085 12.649 32.0041 12.5979 32.4546 12.4026C32.905 12.2073 33.29 11.8767 33.5608 11.4524C33.8317 11.0281 33.9763 10.5293 33.9763 10.019C33.9763 9.33474 33.7166 8.67851 33.2543 8.19467C32.792 7.71082 32.165 7.439 31.5112 7.439ZM40.9605 12.642C40.9205 10.8581 40.6013 9.09322 40.0156 7.4175C39.4933 5.98373 38.6803 4.68545 37.6327 3.612C36.6155 2.50997 35.3722 1.66448 33.9968 1.1395C32.4 0.507746 30.7118 0.166001 29.0051 0.129C26.8277 -1.20141e-07 26.1293 0 20.5419 0C14.9545 0 14.2561 -1.20141e-07 12.0786 0.129C10.3719 0.166001 8.68375 0.507746 7.08695 1.1395C5.71408 1.66979 4.47183 2.51456 3.45103 3.612C2.39811 4.67663 1.5903 5.97795 1.08872 7.4175C0.485118 9.08879 0.158604 10.8557 0.123251 12.642C-1.14787e-07 14.921 0 15.652 0 21.5C0 27.348 -1.14787e-07 28.079 0.123251 30.358C0.158604 32.1443 0.485118 33.9112 1.08872 35.5825C1.5903 37.0221 2.39811 38.3234 3.45103 39.388C4.47183 40.4854 5.71408 41.3302 7.08695 41.8605C8.68375 42.4923 10.3719 42.834 12.0786 42.871C14.2561 43 14.9545 43 20.5419 43C26.1293 43 26.8277 43 29.0051 42.871C30.7118 42.834 32.4 42.4923 33.9968 41.8605C35.3722 41.3355 36.6155 40.49 37.6327 39.388C38.685 38.3185 39.4986 37.0191 40.0156 35.5825C40.6013 33.9068 40.9205 32.1419 40.9605 30.358C40.9605 28.079 41.0837 27.348 41.0837 21.5C41.0837 15.652 41.0837 14.921 40.9605 12.642ZM37.263 30.1C37.248 31.4648 37.0118 32.817 36.5645 34.099C36.2365 35.0347 35.7097 35.8801 35.0239 36.5715C34.3576 37.2821 33.5515 37.8323 32.6616 38.184C31.4367 38.6522 30.1447 38.8993 28.8408 38.915C26.7866 39.0225 26.0266 39.044 20.624 39.044C15.2215 39.044 14.4615 39.044 12.4073 38.915C11.0534 38.9415 9.7052 38.7233 8.42217 38.27C7.57129 37.9004 6.80215 37.3515 6.16256 36.6575C5.48075 35.9668 4.96054 35.1207 4.64246 34.185C4.14095 32.8846 3.86278 31.5017 3.82079 30.1C3.82079 27.95 3.69754 27.1545 3.69754 21.5C3.69754 15.8455 3.69754 15.05 3.82079 12.9C3.83 11.5048 4.07335 10.1221 4.53975 8.815C4.90139 7.90751 5.45647 7.09857 6.16256 6.45C6.78665 5.71076 7.55795 5.12366 8.42217 4.73C9.6743 4.25709 10.994 4.00992 12.3251 3.999C14.3793 3.999 15.1394 3.87 20.5419 3.87C25.9444 3.87 26.7044 3.87 28.7586 3.999C30.0626 4.01465 31.3545 4.26183 32.5794 4.73C33.5129 5.0926 34.3507 5.68212 35.0239 6.45C35.6971 7.11043 36.223 7.91788 36.5645 8.815C37.0211 10.1242 37.2574 11.5063 37.263 12.9C37.3657 15.05 37.3862 15.8455 37.3862 21.5C37.3862 27.1545 37.3657 27.95 37.263 30.1ZM20.5419 10.4705C18.4585 10.4748 16.4231 11.1252 14.6929 12.3397C12.9626 13.5543 11.6152 15.2783 10.8207 17.2941C10.0263 19.3098 9.8205 21.5268 10.2294 23.6649C10.6384 25.803 11.6436 27.7663 13.1182 29.3066C14.5928 30.847 16.4705 31.8953 18.5141 32.3191C20.5577 32.743 22.6755 32.5233 24.5999 31.6879C26.5242 30.8524 28.1688 29.4387 29.3258 27.6254C30.4829 25.8121 31.1004 23.6805 31.1004 21.5C31.1031 20.049 30.8317 18.6117 30.3018 17.2709C29.7719 15.93 28.9939 14.712 28.0127 13.687C27.0314 12.662 25.8662 11.8501 24.5841 11.2981C23.302 10.7461 21.9282 10.4648 20.5419 10.4705ZM20.5419 28.6595C19.189 28.6595 17.8664 28.2396 16.7415 27.4529C15.6166 26.6662 14.7399 25.5481 14.2221 24.2398C13.7044 22.9316 13.5689 21.4921 13.8329 20.1033C14.0968 18.7144 14.7483 17.4387 15.7049 16.4375C16.6616 15.4362 17.8805 14.7543 19.2074 14.4781C20.5343 14.2018 21.9097 14.3436 23.1596 14.8855C24.4095 15.4274 25.4779 16.345 26.2295 17.5224C26.9811 18.6998 27.3823 20.084 27.3823 21.5C27.3823 22.4402 27.2054 23.3712 26.8616 24.2398C26.5179 25.1085 26.014 25.8977 25.3788 26.5625C24.7436 27.2274 23.9895 27.7547 23.1596 28.1145C22.3297 28.4743 21.4402 28.6595 20.5419 28.6595Z" fill="white"/>
</svg>
