<svg width="42" height="43" viewBox="0 0 42 43" fill="none" xmlns="http://www.w3.org/2000/svg">
<path d="M38.7355 0.000300632H3.72752C3.334 -0.00538523 2.94325 0.0696318 2.5776 0.221068C2.21195 0.372504 1.87855 0.597392 1.59645 0.882889C1.31435 1.16839 1.08907 1.5089 0.933477 1.88498C0.777884 2.26107 0.695027 2.66536 0.689636 3.07476V39.9252C0.695027 40.3346 0.777884 40.7389 0.933477 41.115C1.08907 41.4911 1.31435 41.8316 1.59645 42.1171C1.87855 42.4026 2.21195 42.6275 2.5776 42.7789C2.94325 42.9304 3.334 43.0054 3.72752 42.9997H38.7355C39.129 43.0054 39.5198 42.9304 39.8854 42.7789C40.2511 42.6275 40.5845 42.4026 40.8666 42.1171C41.1487 41.8316 41.3739 41.4911 41.5295 41.115C41.6851 40.7389 41.768 40.3346 41.7734 39.9252V3.07476C41.768 2.66536 41.6851 2.26107 41.5295 1.88498C41.3739 1.5089 41.1487 1.16839 40.8666 0.882889C40.5845 0.597392 40.2511 0.372504 39.8854 0.221068C39.5198 0.0696318 39.129 -0.00538523 38.7355 0.000300632ZM13.1512 35.9908H6.95139V16.6411H13.1512V35.9908ZM10.0513 13.9321C9.19625 13.9321 8.37624 13.5787 7.77165 12.9498C7.16706 12.3208 6.8274 11.4677 6.8274 10.5782C6.8274 9.68863 7.16706 8.83554 7.77165 8.20655C8.37624 7.57756 9.19625 7.2242 10.0513 7.2242C10.5053 7.17063 10.9651 7.21744 11.4005 7.36155C11.8359 7.50566 12.2372 7.74383 12.578 8.06046C12.9188 8.37709 13.1915 8.76504 13.3782 9.19891C13.5649 9.63278 13.6614 10.1028 13.6614 10.5782C13.6614 11.0535 13.5649 11.5235 13.3782 11.9574C13.1915 12.3913 12.9188 12.7792 12.578 13.0959C12.2372 13.4125 11.8359 13.6506 11.4005 13.7948C10.9651 13.9389 10.5053 13.9857 10.0513 13.9321ZM35.5116 35.9908H29.3119V25.6064C29.3119 23.005 28.4232 21.3065 26.1706 21.3065C25.4735 21.3118 24.7947 21.5393 24.2257 21.9583C23.6566 22.3773 23.2247 22.9677 22.9881 23.65C22.8264 24.1553 22.7563 24.6875 22.7814 25.2194V35.9693H16.5817C16.5817 35.9693 16.5817 18.3825 16.5817 16.6196H22.7814V19.35C23.3447 18.3333 24.1638 17.4957 25.1507 16.9275C26.1375 16.3592 27.2547 16.0818 28.3819 16.1251C32.5151 16.1251 35.5116 18.8985 35.5116 24.854V35.9908Z" fill="white"/>
</svg>
