<svg width="29" height="29" viewBox="0 0 29 29" fill="none" xmlns="http://www.w3.org/2000/svg">
<path d="M27.1674 21.545C28.3691 19.3915 29 16.9662 29 14.5C29 12.0338 28.3691 9.60851 27.1674 7.455C27.1612 7.38497 27.1398 7.31714 27.1047 7.25619C27.0697 7.19524 27.0218 7.14263 26.9645 7.102C25.3438 4.36939 22.8706 2.24486 19.9252 1.05506C16.9798 -0.134743 13.7253 -0.323955 10.6619 0.516516C7.59851 1.35699 4.89593 3.18061 2.96964 5.70701C1.04335 8.23342 0 11.3227 0 14.5C0 17.6773 1.04335 20.7666 2.96964 23.293C4.89593 25.8194 7.59851 27.643 10.6619 28.4835C13.7253 29.324 16.9798 29.1347 19.9252 27.9449C22.8706 26.7551 25.3438 24.6306 26.9645 21.898C27.0218 21.8574 27.0697 21.8048 27.1047 21.7438C27.1398 21.6829 27.1612 21.615 27.1674 21.545ZM6.19531 22H8.48428C8.96354 23.8868 9.83966 25.6497 11.0542 27.171C8.91807 26.0183 7.2132 24.2039 6.19531 22ZM1.01901 15H3.51543C3.56102 17.0513 3.95383 19.08 4.67716 21H2.67763C1.66165 19.1579 1.09345 17.1025 1.01901 15ZM2.67863 8H4.67816C3.95483 9.92 3.56202 11.9487 3.51643 14H1.01901C1.09376 11.8974 1.6623 9.842 2.67863 8ZM22.8114 7H20.5225C20.0432 5.11316 19.1671 3.35027 17.9526 1.829C20.0887 2.98171 21.7935 4.79609 22.8114 7ZM27.9877 14H25.4913C25.4457 11.9487 25.0529 9.92 24.3296 8H26.3291C27.3451 9.84209 27.9133 11.8975 27.9877 14ZM24.4916 14H21.4957C21.4741 11.9802 21.235 9.96856 20.7824 8H23.2623C24.0292 9.90988 24.4456 11.9424 24.4916 14ZM14.0035 8V14H8.51077C8.53754 11.9776 8.79344 9.96474 9.27359 8H14.0035ZM9.54953 7C10.5493 3.707 12.1749 1.4115 14.0035 1.053V7H9.54953ZM14.0035 15V21H9.27359C8.79344 19.0353 8.53754 17.0224 8.51077 15H14.0035ZM14.0035 22V27.947C12.1749 27.5885 10.5498 25.293 9.54953 22H14.0035ZM15.0033 21V15H20.496C20.4692 17.0224 20.2133 19.0353 19.7332 21H15.0033ZM19.4572 22C18.4575 25.293 16.8313 27.5885 15.0033 27.947V22H19.4572ZM15.0033 14V8H19.7332C20.2133 9.96474 20.4692 11.9776 20.496 14H15.0033ZM15.0033 7V1.053C16.8313 1.4115 18.4565 3.707 19.4572 7H15.0033ZM11.0542 1.829C9.83966 3.35027 8.96354 5.11316 8.48428 7H6.19531C7.2132 4.79609 8.91807 2.98171 11.0542 1.829ZM8.22384 8C7.77145 9.96859 7.53245 11.9802 7.511 14H4.5152C4.56104 11.9424 4.97726 9.90992 5.74391 8H8.22384ZM4.5152 15H7.511C7.53245 17.0198 7.77145 19.0314 8.22384 21H5.74391C4.97726 19.0901 4.56104 17.0576 4.5152 15ZM17.9526 27.171C19.1671 25.6497 20.0432 23.8868 20.5225 22H22.8114C21.7935 24.2039 20.0887 26.0183 17.9526 27.171ZM20.7824 21C21.235 19.0314 21.4741 17.0198 21.4957 15H24.4916C24.4456 17.0576 24.0292 19.0901 23.2623 21H20.7824ZM25.4913 15H27.9877C27.913 17.1026 27.3444 19.158 26.3281 21H24.3286C25.0523 19.0801 25.4454 17.0513 25.4913 15ZM25.7193 7H23.9122C23.1477 5.29208 22.0419 3.75865 20.6629 2.494C22.7015 3.54519 24.441 5.09531 25.7193 7ZM8.34331 2.494C6.96465 3.75881 5.85909 5.29221 5.09456 7H3.28748C4.56561 5.09533 6.30488 3.5452 8.34331 2.494ZM3.28748 22H5.09456C5.85924 23.7078 6.96497 25.2412 8.34381 26.506C6.3052 25.4549 4.56574 23.9047 3.28748 22ZM20.6629 26.506C22.0419 25.2414 23.1477 23.7079 23.9122 22H25.7193C24.441 23.9047 22.7015 25.4548 20.6629 26.506Z" fill="white"/>
</svg>
